<svg xmlns="http://www.w3.org/2000/svg" xml:space="preserve" width="300mm" height="100mm" viewBox="0 0 300 100"><g style="display:inline"><path fill="none" d="M54.5 62.89h101l48.39 46.48L105 203.89 6.11 109.37Z" style="display:inline;fill:none;fill-opacity:0;stroke:#fff;stroke-width:41.4137;stroke-linecap:round;stroke-linejoin:round;stroke-dasharray:none;stroke-opacity:1;paint-order:stroke fill markers" transform="translate(183.508 -19.108)scale(.51809)"/><path d="M54.5 62.89h101l48.39 46.48L105 203.89 6.11 109.37Z" style="display:inline;fill:#cb2228;fill-opacity:1;stroke:none;stroke-width:7.829;stroke-linecap:round;stroke-linejoin:miter;stroke-dasharray:none;stroke-opacity:1;paint-order:stroke fill markers" transform="translate(183.508 -19.108)scale(.51809)"/><path d="m155.5 62.89 48.39 46.48-96.32 94.52zm-101 0 48.378 141L6.11 109.37Z" style="display:inline;fill:#fff;fill-opacity:.16;stroke:none;stroke-width:7.829;stroke-linecap:round;stroke-linejoin:miter;stroke-dasharray:none;stroke-opacity:1;paint-order:stroke fill markers" transform="translate(183.508 -19.108)scale(.51809)"/><path d="M56.176 62.89H155.5l48.39 46.48-51.08 48.496z" style="display:inline;fill:#fff;fill-opacity:.16;stroke:none;stroke-width:7.829;stroke-linecap:round;stroke-linejoin:miter;stroke-dasharray:none;stroke-opacity:1;paint-order:stroke fill markers" transform="translate(183.508 -19.108)scale(.51809)"/><path d="M54.5 62.89h98.766L55 155.96 6.11 109.37Z" style="display:inline;fill:#fff;fill-opacity:.16;stroke:none;stroke-width:7.829;stroke-linecap:round;stroke-linejoin:miter;stroke-dasharray:none;stroke-opacity:1;paint-order:stroke fill markers" transform="translate(183.508 -19.108)scale(.51809)"/><path d="M54.5 62.89h101l48.39 46.48H6.11Z" style="display:inline;fill:#fff;fill-opacity:.16;stroke:none;stroke-width:7.829;stroke-linecap:round;stroke-linejoin:miter;stroke-dasharray:none;stroke-opacity:1;paint-order:stroke fill markers" transform="translate(183.508 -19.108)scale(.51809)"/><path fill="none" d="M54.5 62.89h101l48.39 46.48L105 203.89 6.11 109.37Z" style="display:inline;fill:#cb2228;fill-opacity:0;stroke:#ca2127;stroke-width:7.829;stroke-linecap:round;stroke-linejoin:miter;stroke-dasharray:none;stroke-opacity:1;paint-order:stroke fill markers" transform="translate(183.508 -19.108)scale(.51809)"/></g><g style="display:inline"><path d="M183.137 22.61h12.42v15.285s-6.516 1.777-10.426 1.777-15.106-.829-15.106-14.395c0-13.567 11.73-14.857 15.106-14.95 5.137-.139 9.874 1.857 9.874 1.857l-2.587 5.885s-2.903-1.58-7.287-1.58-7.148 3.258-7.148 8.788c0 5.529 3.167 8.175 7.148 8.175.612 0 2.026-.032 3.16-.336v-4.821h-5.154zm-37.342-11.808h22.196v4.7l-12.935 17.654h13.172v6.003h-23.046v-4.64l13.31-17.832h-12.717z" style="display:inline;fill:#fff;fill-opacity:.7;stroke-width:7.82904;stroke-linecap:round;stroke-dasharray:none;paint-order:stroke fill markers" transform="translate(-12.87 25.532)scale(.94622)"/><path d="M110.447 10.743h10.584l5.786 19.668 5.964-19.668h10.13l-11.828 30.766s-3.995 12.954-18.01 9.637c.006-5.609.001-.312 0-7.564 1.856.114 6.76 1.686 9.084-4.68-.934-2.238-11.71-28.16-11.71-28.16M81.156.028v38.93h7.847l1.676-2.709h.837s1.844 3.38 6.982 3.38c5.139 0 11.115-3.631 11.115-13.769s-3.686-15.583-10.277-15.583-7.875 4.245-7.875 4.245h-.559V.028Zm14.298 17.845c4.468 0 4.078 5.949 4.078 6.87s-.224 7.4-4.078 7.4-4.328-4.35-4.3-7.4c.007-.796-.168-6.87 4.3-6.87M47.011 11.05h9.83v17.035c0 1.145 1.09 4.301 3.855 4.301s5.194-3.044 5.194-6.898V11.05h9.551v27.983h-7.15l-1.368-3.435h-.81s-2.01 4.021-8.378 4.021c-6.367 0-10.584-3.295-10.584-9.55s-.14-19.02-.14-19.02M13.768 2.765v36.193h9.774V25.581h3.044l7.807 13.377H45.52L34.74 23.04s6.702-2.597 6.702-9.886c0-7.29-6.534-10.39-11.477-10.39zm9.886 7.024h3.55c.761 0 3.875.576 3.875 4.206s-3.187 4.507-3.875 4.507h-3.55z" style="fill:#fff;fill-opacity:1;stroke-width:7.82899;stroke-linecap:round;paint-order:stroke fill markers" transform="translate(-12.87 25.532)scale(.94622)"/></g></svg>