<svg xmlns="http://www.w3.org/2000/svg" xml:space="preserve" width="571.431" height="546.788" viewBox="0 0 151.191 144.671"><g style="display:inline"><path d="M54.5 62.89h101l48.39 46.48L105 203.89 6.11 109.37Z" style="display:inline;fill:#cb2228;fill-opacity:1;stroke:none;stroke-width:7.829;stroke-linecap:round;stroke-linejoin:miter;stroke-dasharray:none;stroke-opacity:1;paint-order:stroke fill markers" transform="rotate(-43.691 44.2 127.57)"/><path d="m155.5 62.89 48.39 46.48-96.32 94.52zm-101 0 48.378 141L6.11 109.37Z" style="display:inline;fill:#fff;fill-opacity:.16;stroke:none;stroke-width:7.829;stroke-linecap:round;stroke-linejoin:miter;stroke-dasharray:none;stroke-opacity:1;paint-order:stroke fill markers" transform="rotate(-43.691 44.2 127.57)"/><path d="M56.176 62.89H155.5l48.39 46.48-51.08 48.496z" style="display:inline;fill:#fff;fill-opacity:.16;stroke:none;stroke-width:7.829;stroke-linecap:round;stroke-linejoin:miter;stroke-dasharray:none;stroke-opacity:1;paint-order:stroke fill markers" transform="rotate(-43.691 44.2 127.57)"/><path d="M54.5 62.89h98.766L55 155.96 6.11 109.37Z" style="display:inline;fill:#fff;fill-opacity:.16;stroke:none;stroke-width:7.829;stroke-linecap:round;stroke-linejoin:miter;stroke-dasharray:none;stroke-opacity:1;paint-order:stroke fill markers" transform="rotate(-43.691 44.2 127.57)"/><path d="M54.5 62.89h101l48.39 46.48H6.11Z" style="display:inline;fill:#fff;fill-opacity:.16;stroke:none;stroke-width:7.829;stroke-linecap:round;stroke-linejoin:miter;stroke-dasharray:none;stroke-opacity:1;paint-order:stroke fill markers" transform="rotate(-43.691 44.2 127.57)"/><path fill="none" d="M54.5 62.89h101l48.39 46.48L105 203.89 6.11 109.37Z" style="display:inline;fill:#cb2228;fill-opacity:0;stroke:#ca2127;stroke-width:7.829;stroke-linecap:round;stroke-linejoin:miter;stroke-dasharray:none;stroke-opacity:1;paint-order:stroke fill markers" transform="rotate(-43.691 44.2 127.57)"/></g></svg>