<svg xmlns="http://www.w3.org/2000/svg" height="20" fill="#262626" viewBox="0 0 140 20"><path d="M100.869 20v-4.385c3.065 0 5.552-2.505 5.552-5.593s-2.487-5.592-5.552-5.592V0c5.463 0 9.949 4.474 9.949 10.022 0 5.504-4.441 9.978-9.949 9.978M7.462 20v-4.385c3.065 0 5.552-2.505 5.552-5.593S10.527 4.43 7.462 4.43V0c5.463 0 9.95 4.474 9.95 10.022C17.366 15.526 12.924 20 7.461 20M53.522 0v4.385c-3.065 0-5.553 2.505-5.553 5.593s2.488 5.592 5.553 5.592v4.385c-5.464 0-9.95-4.474-9.95-10.022C43.617 4.474 48.058 0 53.522 0M87.811 10.022h-4.353c0-3.087-2.487-5.592-5.552-5.592s-5.552 2.505-5.552 5.592h-4.397C67.957 4.474 72.399 0 77.862 0c5.508 0 9.95 4.474 9.95 10.022"/><path d="M67.957 10.023h4.353c0 3.087 2.487 5.592 5.552 5.592s5.552-2.505 5.552-5.592h4.353c0 5.503-4.442 10.022-9.95 10.022-5.418-.045-9.86-4.52-9.86-10.022" opacity=".4"/><path d="M131.25 20h-14.924V0h14.924v4.385h-10.571v11.23h10.571z"/><path d="M131.205 7.785h-10.526v4.385h10.526zM37.976 20H23.052V0h14.924v4.385H27.45v11.23h10.526zM7.462 20H0V0h7.462v4.385h-3.11v11.23h3.11zM100.869 20h-7.462V0h7.462v4.385h-3.065v11.23h3.065zM58.674 7.875l3.908-2.014C61.028 2.416 57.563 0 53.522 0v4.385c2.354 0 4.308 1.476 5.152 3.49M58.674 12.125c-.844 2.058-2.843 3.49-5.152 3.49V20c3.997 0 7.506-2.416 9.06-5.906z" opacity=".4"/><path d="M37.932 7.785h-14.88v4.385h14.88zM137.823 2.103c.311 0 .489-.134.489-.358 0-.268-.178-.403-.489-.403h-.355v.76zm-.755-1.074h.755c.489 0 .8.224.8.671 0 .358-.178.537-.489.627l.622.984h-.4l-.621-.94h-.311v.94h-.356zm2.621 1.163c0-1.118-.8-1.924-1.91-1.924-1.066 0-1.91.806-1.91 1.924 0 1.119.844 1.924 1.91 1.924 1.11 0 1.91-.805 1.91-1.924m-4.086 0c0-1.208.977-2.192 2.176-2.192 1.244 0 2.176.984 2.176 2.192a2.16 2.16 0 0 1-2.176 2.193 2.16 2.16 0 0 1-2.176-2.193"/></svg>