<svg xmlns="http://www.w3.org/2000/svg" width="200" height="17.939" fill="none" viewBox="0 0 200 17.939"><path d="M48.6 1.133h-5.4V16.8h5.4zm28.467 0v15.734H71.2L58 6.8v10.067h-5.4V1.133h6.466l12.6 9.6v-9.6zM102.133 5.4H86.867v2.867h14.666v4.066H86.867v4.534h-5.334V1.133h20.6zm8.734-4.267h-5.4V16.8h5.4zm28.867 0v15.734h-5.8L120.667 6.8v10.067h-5.334V1.133h6.401l12.6 9.6v-9.6zm9.599 8.134c0 1.133.267 2.066.933 2.666.667.667 1.867.934 3.534.934h2.866q4.6 0 4.6-3.6V1.133h5.4v8.134c0 2.266-.733 4.2-2.133 5.6-1.467 1.466-3.6 2.2-6.6 2.2H152.6q-2.3 0-4-.6t-3.2-2.2c-1-1.067-1.467-2.734-1.467-5V1.133h5.4zm26.8 7.6H170.8V1.133h7.733l6.667 10.334 6.533-10.334h7.867v15.734h-5.334v-10.6l-6.733 10.6h-4.467l-6.933-10.6z" style="fill:#111;fill-opacity:1"/><path stroke-miterlimit="10" stroke-width="5.053" d="M2.544 8.987c0-3.6 2.733-6.443 6.334-6.443 3.478 0 5.838 2.906 9.13 6.443 3.29 3.537 5.65 6.443 9.128 6.443 3.54 0 6.334-2.843 6.334-6.443s-2.856-6.443-6.396-6.443c-3.478 0-5.838 2.906-9.129 6.443s-5.651 6.443-9.129 6.443c-3.54-.063-6.272-2.906-6.272-6.443Z" style="stroke:#d8262c;stroke-opacity:1"/></svg>