<svg xmlns="http://www.w3.org/2000/svg" aria-label="Homepage" viewBox="0 0 247 48"><path d="M83.097.492Q84.1.978 84.9 1.775q.798.8 1.284 1.803.486 1.004.486 2.048v23.657q0 1.04-.486 2.048a6.5 6.5 0 0 1-1.284 1.802 6.5 6.5 0 0 1-1.802 1.283q-1.004.487-1.977.487H48.998q-.971 0-1.977-.487a6.6 6.6 0 0 1-1.802-1.283 6.5 6.5 0 0 1-1.284-1.802 4.65 4.65 0 0 1-.486-2.048V5.626q0-1.042.486-2.048a6.6 6.6 0 0 1 1.284-1.803A6.6 6.6 0 0 1 47.02.492q1.005-.486 1.977-.486H81.12q.967 0 1.977.486m-29.659 8.88v16.164H76.68V9.373zM91.11 13.187h9.988v12.349h23.103V9.373H91.109V.006h37.532q.971 0 1.977.486a6.6 6.6 0 0 1 1.805 1.283q.798.8 1.284 1.803a4.7 4.7 0 0 1 .486 2.048v23.657q0 1.04-.486 2.048a6.5 6.5 0 0 1-1.284 1.802 6.5 6.5 0 0 1-1.805 1.283q-1.006.487-1.977.487H91.109zM148.693 38.8h-10.06v9.368h10.06zM148.693 0h-10.06v34.984h10.06zM210.158 21.721q-.971 0-1.977-.486a6.6 6.6 0 0 1-1.802-1.283 6.5 6.5 0 0 1-1.283-1.803 4.66 4.66 0 0 1-.486-2.048V5.626q0-1.042.486-2.048a6.6 6.6 0 0 1 1.283-1.803 6.6 6.6 0 0 1 1.802-1.283q1.006-.486 1.977-.486h36.839v9.367h-32.398v3.814h26.849q.971 0 1.977.487 1.005.485 1.805 1.283.798.798 1.284 1.802t.486 2.048v10.476q0 1.04-.486 2.048a6.5 6.5 0 0 1-1.284 1.802 6.5 6.5 0 0 1-1.805 1.283q-1.006.487-1.977.487h-40.796v-9.367h36.352V21.72zM9.992 13.19V.007H0v34.897h9.992V13.189M163.122.008h-9.989v21.715h9.989zM196.216.008h-9.989v21.715h9.989zM153.133 25.537v3.747q0 1.04.486 2.048t1.283 1.802a6.5 6.5 0 0 0 1.806 1.284c.667.324 1.329.486 1.977.486h37.532v-9.367z"/><path d="M40.407 48.165h12.361L26.175 17.488 41.298.006h-12.42l-15.82 17.466z"/></svg>
