<svg xmlns="http://www.w3.org/2000/svg" viewBox="0 0 901.62 113.84"><g data-name="Layer 2"><g data-name="Layer 1"><path d="M901 69.73c-3.16-20.93-28.21-22.16-44.79-23 0 0-68.41-1.85-75.63-2.17-6.35-.27-13.73-1.5-14.46-8.59-.75-7.42 5.94-10.86 12-12.15 12.16-2.57 24.3-2.79 36.35-2.79 26.48 0 50.85 2.91 76.58 7.61L893.86 8v-.15C874.47 4.27 847.63 0 819 0a289 289 0 0 0-37.49 2.27c-13.54 1.78-28.37 4.89-35.65 14.42-6.18 8.1-6.81 21.78-3.07 31.11 6.44 16.05 29.23 16.67 43.44 17.31 0 0 68.82 2 76.11 2.29 6.35.28 13.74 1.55 14.46 8.85.65 6.53-3.7 11.25-12.68 13.12-11.74 2.45-24.13 2.78-36.17 2.78-29.26 0-55.1-3.06-84.81-7.67l-2.43 20.85a433.2 433.2 0 0 0 82.77 8.51h.41c12.61 0 25.34 0 37.86-1.8 11-1.59 22.61-4 31.3-11.57s9.53-20.28 7.95-30.74M97.48 85.81 29.06.77H0v112.35h25.7V35.23l57 70.79c8 10 21.58 10 29.66 0l56.95-70.79v77.89H195V.77h-29.1ZM409.96.77H260.51v112.35h150.7l3.78-22.72H286.21V68.31h118.65V45.58H286.21V23.49h123.75zM658 113.09 704.82.77h-26.53l-35.88 86L600.13 11a21.31 21.31 0 0 0-36.94 0L520.9 86.74 485 .77h-26.5l46.87 112.32h27.27l49-88.62 49 88.62Z"/></g></g></svg>